<svg id="Layer_1" data-name="Layer 1" xmlns="http://www.w3.org/2000/svg" xmlns:xlink="http://www.w3.org/1999/xlink" viewBox="0 0 50 50"><defs><style>.cls-1{fill:url(#linear-gradient);}.cls-2{fill:#201600;}.cls-3,.cls-4{stroke:#201600;stroke-miterlimit:10;stroke-width:0.67px;}.cls-3{fill:url(#linear-gradient-2);}.cls-4{fill:url(#linear-gradient-3);}</style><linearGradient id="linear-gradient" x1="25" y1="7.35" x2="25" y2="2.51" gradientUnits="userSpaceOnUse"><stop offset="0" stop-color="#454545"/><stop offset="0.18" stop-color="#5c5c5c"/><stop offset="0.54" stop-color="#888"/><stop offset="0.83" stop-color="#a3a3a3"/><stop offset="1" stop-color="#adadad"/></linearGradient><linearGradient id="linear-gradient-2" y1="14.96" x2="25" y2="5.46" xlink:href="#linear-gradient"/><linearGradient id="linear-gradient-3" y1="29.12" x2="25" y2="13.46" xlink:href="#linear-gradient"/></defs><title>myShip</title><path class="cls-1" d="M22.32,11.05l1-10c0-.38.78-.67,1.7-.67s1.7.29,1.7.63l1,10.05Z"/><path class="cls-2" d="M25,.73A2.28,2.28,0,0,1,26.33,1v0l.93,9.61H22.73l.93-9.61V1A2.28,2.28,0,0,1,25,.73M25,0c-1,0-2.07.33-2.07,1l-1,10.42h6.16L27.07,1c0-.67-1-1-2.07-1Z"/><path class="cls-3" d="M28.18,8.75c0-1.33-6.36-1.33-6.36,0L20.25,19.17h9.5Z"/><path class="cls-4" d="M30.25,14.58c0-1.33-10.5-1.33-10.5,0L17.17,25a7.83,7.83,0,0,0,15.66,0Z"/></svg>