<svg id="Layer_1" data-name="Layer 1" xmlns="http://www.w3.org/2000/svg" xmlns:xlink="http://www.w3.org/1999/xlink" viewBox="0 0 50 50"><defs><style>.cls-1{fill:url(#linear-gradient);}.cls-2{fill:#201600;}.cls-3{fill:url(#linear-gradient-2);}.cls-4{fill:url(#linear-gradient-3);}.cls-5{fill:url(#linear-gradient-4);}</style><linearGradient id="linear-gradient" x1="25" y1="0.25" x2="25" y2="49.5" gradientUnits="userSpaceOnUse"><stop offset="0" stop-color="#4a4a4a"/><stop offset="0.01" stop-color="#4c4c4c" stop-opacity="0.99"/><stop offset="0.44" stop-color="#acadad" stop-opacity="0.45"/><stop offset="0.79" stop-color="#e7e8e8" stop-opacity="0.12"/><stop offset="1" stop-color="#fdfefe" stop-opacity="0"/></linearGradient><linearGradient id="linear-gradient-2" x1="25" y1="14.33" x2="25" y2="38.43" xlink:href="#linear-gradient"/><linearGradient id="linear-gradient-3" x1="35.04" y1="10.88" x2="50" y2="10.88" gradientUnits="userSpaceOnUse"><stop offset="0" stop-color="#fff359"/><stop offset="0" stop-color="#f9e158"/><stop offset="0" stop-color="#ecb755"/><stop offset="0" stop-color="#e29553"/><stop offset="0" stop-color="#da7a51"/><stop offset="0" stop-color="#d46750"/><stop offset="0" stop-color="#d05c4f"/><stop offset="0" stop-color="#cf584f"/><stop offset="0.43" stop-color="#f0c145" stop-opacity="0.9"/><stop offset="1" stop-color="#fdf049" stop-opacity="0"/></linearGradient><linearGradient id="linear-gradient-4" x1="35.04" y1="39.11" y2="39.11" xlink:href="#linear-gradient-3"/></defs><title>roundShip-01</title><circle class="cls-1" cx="25" cy="25" r="24.62"/><path class="cls-2" d="M25,.75A24.25,24.25,0,1,1,.75,25,24.28,24.28,0,0,1,25,.75M25,0A25,25,0,1,0,50,25,25,25,0,0,0,25,0Z"/><path class="cls-3" d="M25,37.05a12,12,0,1,1,12-12A12.07,12.07,0,0,1,25,37.05Z"/><path class="cls-2" d="M25,13.33A11.67,11.67,0,1,1,13.33,25,11.68,11.68,0,0,1,25,13.33m0-.75A12.42,12.42,0,1,0,37.42,25,12.42,12.42,0,0,0,25,12.58Z"/><path class="cls-2" d="M36.23,7.19c.66,0,1.19,1.65,1.19,3.69s-.53,3.68-1.19,3.68S35,12.91,35,10.88s.53-3.69,1.19-3.69m0-.25c-.95,0-1.44,2-1.44,3.94s.49,3.93,1.44,3.93,1.44-2,1.44-3.93-.49-3.94-1.44-3.94Z"/><path class="cls-4" d="M36.3,7.19a.65.65,0,0,0-.19,0C35.51,7.42,35,9,35,10.88s.47,3.45,1.07,3.64a.65.65,0,0,0,.19,0L50,17.29V4.47Z"/><path class="cls-2" d="M36.23,35.43c.66,0,1.19,1.65,1.19,3.68s-.53,3.69-1.19,3.69S35,41.15,35,39.11s.53-3.68,1.19-3.68m0-.25c-.95,0-1.44,2-1.44,3.93s.49,3.94,1.44,3.94,1.44-2,1.44-3.94-.49-3.93-1.44-3.93Z"/><path class="cls-5" d="M36.3,35.43a.65.65,0,0,0-.19,0c-.6.19-1.07,1.74-1.07,3.65s.47,3.45,1.07,3.64a.65.65,0,0,0,.19,0L50,45.52V32.71Z"/></svg>